HIERARCHY
ROOT hip
{
  OFFSET 0 0 0
  CHANNELS 6 Xposition Yposition Zposition Zrotation Yrotation Xrotation
  JOINT abdomen
  {
    OFFSET 0 20.6881 -0.73152
    CHANNELS 3 Zrotation Xrotation Yrotation
    JOINT chest
    {
      OFFSET 0 11.7043 -0.48768
      CHANNELS 3 Zrotation Xrotation Yrotation
      JOINT neck
      {
        OFFSET 0 22.1894 -2.19456
        CHANNELS 3 Zrotation Xrotation Yrotation
        JOINT head
        {
          OFFSET -0.24384 7.07133 1.2192
          CHANNELS 3 Zrotation Xrotation Yrotation
          JOINT leftEye
          {
            OFFSET 4.14528 8.04674 8.04672
            CHANNELS 3 Zrotation Xrotation Yrotation
            End Site
            {
              OFFSET 1 0 0
            }
          }
          JOINT rightEye
          {
            OFFSET -3.6576 8.04674 8.04672
            CHANNELS 3 Zrotation Xrotation Yrotation
            End Site
            {
              OFFSET 1 0 0
            }
          }
        }
      }
      JOINT rCollar
      {
        OFFSET -2.68224 19.2634 -4.8768
        CHANNELS 3 Zrotation Xrotation Yrotation
        JOINT rShldr
        {
          OFFSET -8.77824 -1.95073 1.46304
          CHANNELS 3 Zrotation Xrotation Yrotation
          JOINT rForeArm
          {
            OFFSET -28.1742 -1.7115 0.48768
            CHANNELS 3 Zrotation Xrotation Yrotation
            JOINT rHand
            {
              OFFSET -22.5879 0.773209 7.07136
              CHANNELS 3 Zrotation Xrotation Yrotation
              JOINT rThumb1
              {
                OFFSET -1.2192 -0.487915 3.41376
                CHANNELS 3 Zrotation Xrotation Yrotation
                JOINT rThumb2
                {
                  OFFSET -3.37035 -0.52449 3.41376
                  CHANNELS 3 Zrotation Xrotation Yrotation
                  End Site
                  {
                    OFFSET -1.78271 -1.18214 1.43049
                  }
                }
              }
              JOINT rIndex1
              {
                OFFSET -7.75947 0.938293 5.60832
                CHANNELS 3 Zrotation Xrotation Yrotation
                JOINT rIndex2
                {
                  OFFSET -2.54057 -0.884171 1.56538
                  CHANNELS 3 Zrotation Xrotation Yrotation
                  End Site
                  {
                    OFFSET -1.62519 -0.234802 1.16502
                  }
                }
              }
              JOINT rMid1
              {
                OFFSET -8.24714 1.18213 3.41376
                CHANNELS 3 Zrotation Xrotation Yrotation
                JOINT rMid2
                {
                  OFFSET -3.10165 -0.590103 1.0647
                  CHANNELS 3 Zrotation Xrotation Yrotation
                  End Site
                  {
                    OFFSET -2.48547 -0.328903 0.83742
                  }
                }
              }
              JOINT rRing1
              {
                OFFSET -8.82822 0.546677 1.51678
                CHANNELS 3 Zrotation Xrotation Yrotation
                JOINT rRing2
                {
                  OFFSET -2.60934 -0.819778 -0.0198488
                  CHANNELS 3 Zrotation Xrotation Yrotation
                  End Site
                  {
                    OFFSET -2.33842 -0.294052 0.168128
                  }
                }
              }
              JOINT rPinky1
              {
                OFFSET -8.27202 -0.0477905 -0.4584
                CHANNELS 3 Zrotation Xrotation Yrotation
                JOINT rPinky2
                {
                  OFFSET -1.82734 -0.647385 -0.700984
                  CHANNELS 3 Zrotation Xrotation Yrotation
                  End Site
                  {
                    OFFSET -1.69225 -0.51767 -0.607171
                  }
                }
              }
            }
          }
        }
      }
      JOINT lCollar
      {
        OFFSET 2.68224 19.2634 -4.8768
        CHANNELS 3 Zrotation Xrotation Yrotation
        JOINT lShldr
        {
          OFFSET 8.77824 -1.95073 1.46304
          CHANNELS 3 Zrotation Xrotation Yrotation
          JOINT lForeArm
          {
            OFFSET 28.1742 -1.7115 0.48768
            CHANNELS 3 Zrotation Xrotation Yrotation
            JOINT lHand
            {
              OFFSET 22.5879 0.773209 7.07136
              CHANNELS 3 Zrotation Xrotation Yrotation
              JOINT lThumb1
              {
                OFFSET 1.2192 -0.487915 3.41376
                CHANNELS 3 Zrotation Xrotation Yrotation
                JOINT lThumb2
                {
                  OFFSET 3.37035 -0.52449 3.41376
                  CHANNELS 3 Zrotation Xrotation Yrotation
                  End Site
                  {
                    OFFSET 1.78271 -1.18214 1.43049
                  }
                }
              }
              JOINT lIndex1
              {
                OFFSET 7.75947 0.938293 5.60832
                CHANNELS 3 Zrotation Xrotation Yrotation
                JOINT lIndex2
                {
                  OFFSET 2.54057 -0.884171 1.56538
                  CHANNELS 3 Zrotation Xrotation Yrotation
                  End Site
                  {
                    OFFSET 1.62519 -0.234802 1.16502
                  }
                }
              }
              JOINT lMid1
              {
                OFFSET 8.24714 1.18213 3.41376
                CHANNELS 3 Zrotation Xrotation Yrotation
                JOINT lMid2
                {
                  OFFSET 3.10165 -0.590103 1.0647
                  CHANNELS 3 Zrotation Xrotation Yrotation
                  End Site
                  {
                    OFFSET 2.48547 -0.328903 0.83742
                  }
                }
              }
              JOINT lRing1
              {
                OFFSET 8.82822 0.546677 1.51678
                CHANNELS 3 Zrotation Xrotation Yrotation
                JOINT lRing2
                {
                  OFFSET 2.60934 -0.819778 -0.0198488
                  CHANNELS 3 Zrotation Xrotation Yrotation
                  End Site
                  {
                    OFFSET 2.33842 -0.294052 0.168128
                  }
                }
              }
              JOINT lPinky1
              {
                OFFSET 8.27202 -0.0477905 -0.4584
                CHANNELS 3 Zrotation Xrotation Yrotation
                JOINT lPinky2
                {
                  OFFSET 1.82734 -0.647385 -0.700984
                  CHANNELS 3 Zrotation Xrotation Yrotation
                  End Site
                  {
                    OFFSET 1.69225 -0.51767 -0.607171
                  }
                }
              }
            }
          }
        }
      }
    }
  }
  JOINT rButtock
  {
    OFFSET -8.77824 4.35084 1.2192
    CHANNELS 3 Zrotation Xrotation Yrotation
    JOINT rThigh
    {
      OFFSET 0 -1.70687 -2.19456
      CHANNELS 3 Zrotation Xrotation Yrotation
      JOINT rShin
      {
        OFFSET 0 -36.8199 0.73152
        CHANNELS 3 Zrotation Xrotation Yrotation
        JOINT rFoot
        {
          OFFSET 0.73152 -45.1104 -5.12064
          CHANNELS 3 Zrotation Xrotation Yrotation
          End Site
          {
            OFFSET -1.1221 -3.69964 12.103
          }
        }
      }
    }
  }
  JOINT lButtock
  {
    OFFSET 8.77824 4.35084 1.2192
    CHANNELS 3 Zrotation Xrotation Yrotation
    JOINT lThigh
    {
      OFFSET 0 -1.70687 -2.19456
      CHANNELS 3 Zrotation Xrotation Yrotation
      JOINT lShin
      {
        OFFSET 0 -36.8199 0.73152
        CHANNELS 3 Zrotation Xrotation Yrotation
        JOINT lFoot
        {
          OFFSET -0.73152 -45.1104 -5.12064
          CHANNELS 3 Zrotation Xrotation Yrotation
          End Site
          {
            OFFSET 1.1221 -3.69964 12.103
          }
        }
      }
    }
  }
}
MOTION
Frames:	4
Frame Time:	0.03333
-0.8852194994688034 -7.441661506891251 -2.9777338728308678 4.6069464683532715 23.22474479675293 4.396428108215332 -12.270040512084961 9.770988464355469 -0.02031121216714382 6.195009231567383 -8.31991195678711 0.28584176301956177 -7.606254577636719 16.855093002319336 -9.632121086120605 12.102792739868164 -26.254053115844727 -16.032129287719727 -0.13429051637649536 -0.006502213422209024 -0.0796053558588028 0.029065851122140884 -0.11168847233057022 -0.1660090535879135 0.08662711083889008 0.011552838608622551 0.02652822993695736 48.26335144042969 28.115201950073242 8.75026798248291 -27.931743621826172 -30.216922760009766 67.5431137084961 -0.03899981826543808 -0.8440935611724854 -0.08991183340549469 0.06045856326818466 0.00521576264873147 0.0395517535507679 -0.01876676268875599 -0.03453236073255539 -0.09547225385904312 0.15177449584007263 -0.07328661531209946 -0.0010911383433267474 7.764322280883789 5.416987419128418 0.34670689702033997 0.03553692623972893 -0.11944005638360977 -0.1279943436384201 3.0932271480560303 0.9035502076148987 0.24087031185626984 0.022285161539912224 0.0028424838092178106 -0.043453458696603775 10.269103050231934 0.7083554863929749 0.18331921100616455 -0.1112082302570343 -0.017730260267853737 0.30519554018974304 2.365858793258667 -0.8706249594688416 -0.1374683678150177 -0.03395134210586548 -0.005113072693347931 -0.14464277029037476 -59.3671760559082 54.49247741699219 -19.493703842163086 28.01089859008789 -40.87721633911133 -85.276123046875 1.224179983139038 -29.810762405395508 4.527010440826416 0.11870011687278748 0.010074027813971043 0.0989987775683403 -0.07704883068799973 0.12808743119239807 -0.0767093226313591 0.039951059967279434 -0.14269454777240753 0.0836825743317604 -7.6919965744018555 5.474893093109131 -0.2814129889011383 0.15391840040683746 0.10145219415426254 0.03325684741139412 -2.9194447994232178 1.1215664148330688 -0.10748768597841263 -0.021088961511850357 0.11353234201669693 -0.027838297188282013 -10.170232772827148 0.5884346961975098 -0.013216582126915455 0.17507238686084747 0.01940850354731083 -0.1274777203798294 -2.1593356132507324 -0.8013985753059387 0.20630358159542084 -0.029330581426620483 -0.024936826899647713 0.06232916936278343 -47.49346160888672 -57.29465866088867 -45.45003890991211 -2.3506760597229004 70.95662689208984 2.744197368621826 1.933955192565918 -5.498036861419678 10.86460018157959 0.07288052886724472 -0.011592795141041279 0.14279085397720337 10.636613845825195 4.8129563331604 4.459957599639893 0.10117986053228378 43.18732833862305 -2.962752103805542 17.23347282409668 -23.91774559020996 39.343597412109375
-0.9034600108861923 -7.441788166761398 -3.0287216417491436 4.589500427246094 23.352901458740234 3.95031476020813 -12.489681243896484 10.050304412841797 -0.005432238336652517 6.378342628479004 -8.211359024047852 0.26866596937179565 -7.602118968963623 16.738222122192383 -9.6317720413208 11.859177589416504 -26.207216262817383 -16.131772994995117 -0.12686623632907867 -0.09213700890541077 -0.0003302971599623561 0.055776823312044144 -0.1021728441119194 -0.22893451154232025 0.051681142300367355 0.00900869257748127 0.043564483523368835 48.37750244140625 28.078125 8.489001274108887 -27.802997589111328 -29.77351951599121 66.84906768798828 -0.0977272316813469 -0.39561986923217773 -0.04842294007539749 0.10268516093492508 -0.024342376738786697 -0.02020185999572277 -0.06333064287900925 0.013945242390036583 -0.1463339924812317 0.1941944807767868 -0.03198352828621864 0.00676035275682807 7.7325873374938965 5.396649360656738 0.37298277020454407 0.07397834211587906 -0.18287502229213715 -0.09211131185293198 3.0995664596557617 0.8682435154914856 0.15706795454025269 -0.039459388703107834 0.036462415009737015 0.024239499121904373 10.28067684173584 0.7153177261352539 0.1913692206144333 -0.13618087768554688 -0.08974818140268326 0.28903892636299133 2.3847036361694336 -0.8041434288024902 -0.10830716043710709 -0.050435855984687805 -0.08796068280935287 -0.21187765896320343 -59.69423294067383 54.34649658203125 -19.580625534057617 28.108198165893555 -40.703895568847656 -84.83826446533203 1.1198338270187378 -29.554216384887695 4.411977291107178 0.1291552484035492 -0.010768039152026176 0.06302233040332794 -0.07490722835063934 0.15969879925251007 -0.061876989901065826 0.047544822096824646 -0.17668417096138 0.01468711905181408 -7.689107894897461 5.456934452056885 -0.23626597225666046 0.08699263632297516 0.01626947894692421 0.0698380246758461 -2.9706544876098633 1.0887480974197388 -0.02739788591861725 0.009771667420864105 0.12989027798175812 -0.08989832550287247 -10.147330284118652 0.5609943866729736 0.022732889279723167 0.1340273767709732 0.04468771442770958 -0.17384296655654907 -2.184800863265991 -0.7952041625976562 0.21912138164043427 -0.011046912521123886 -0.0225995946675539 0.05131950601935387 -47.3668212890625 -57.32919692993164 -45.32960510253906 -2.593749523162842 71.2483901977539 2.9404163360595703 1.941329002380371 -5.546330451965332 10.603873252868652 0.09410423040390015 0.08290880173444748 0.1430174559354782 10.581488609313965 4.494184970855713 4.253102779388428 0.11357185989618301 43.16054916381836 -2.991109848022461 16.795425415039062 -23.43494415283203 38.724632263183594
-0.9162919595837593 -7.387136667966843 -3.0797933228313923 4.213994026184082 22.32764434814453 3.508199453353882 -12.223404884338379 10.223496437072754 0.15294089913368225 6.094249248504639 -8.263681411743164 0.3361116349697113 -7.7393951416015625 16.730266571044922 -9.55730152130127 12.08482837677002 -26.321334838867188 -15.780534744262695 -0.09749765694141388 -0.08153772354125977 0.01938581094145775 -0.04059756174683571 -0.029167691245675087 -0.22263121604919434 -0.027588756754994392 0.03735188767313957 0.08851475268602371 46.54511642456055 29.274736404418945 10.600329399108887 -27.96299934387207 -30.958574295043945 68.74229431152344 0.009373080916702747 -2.140735626220703 -0.30463775992393494 0.036138053983449936 0.09239862114191055 0.016159620136022568 -0.027755511924624443 -0.1005818173289299 -0.0949184000492096 0.23287330567836761 -0.08950923383235931 0.033383533358573914 7.771681785583496 5.414639949798584 0.3164653182029724 0.06970445811748505 -0.1788722723722458 -0.0821826383471489 2.967148542404175 0.9274482727050781 0.14582940936088562 -0.017111077904701233 -0.002968251472339034 0.0279676616191864 10.332681655883789 0.791930079460144 0.16507947444915771 -0.04455505311489105 -0.009440770372748375 0.18263474106788635 2.520350217819214 -0.7373989820480347 -0.17298276722431183 0.027837026864290237 -0.06420429795980453 -0.2353087216615677 -59.5582275390625 53.93898391723633 -19.249637603759766 28.04741096496582 -40.55368423461914 -84.80707550048828 1.032979130744934 -28.884315490722656 4.244487285614014 0.12223644554615021 -0.07266347855329514 0.029653554782271385 0.07405444234609604 0.1320287436246872 -0.12650147080421448 0.020955026149749756 -0.16823306679725647 -0.05430000647902489 -7.727137565612793 5.358335494995117 -0.2526141107082367 0.06505250930786133 0.06608783453702927 0.032136790454387665 -2.96173095703125 1.0616369247436523 -0.11338869482278824 0.0052787987515330315 0.12467290461063385 -0.09536268562078476 -10.142632484436035 0.6541662812232971 0.07100962847471237 0.11573591828346252 0.12259866297245026 -0.18801426887512207 -2.142143964767456 -0.7442775368690491 0.20959289371967316 -0.12863481044769287 -0.019191712141036987 0.04102439060807228 -48.23488235473633 -58.209861755371094 -45.93243408203125 -2.97281813621521 72.70156860351562 3.3703322410583496 2.233930826187134 -5.550483703613281 10.597715377807617 0.08726750314235687 0.11516635864973068 0.009109708480536938 11.265731811523438 3.7149746417999268 4.164463043212891 0.13388675451278687 45.03398132324219 -3.064931631088257 16.772109985351562 -23.480520248413086 38.245662689208984
-0.9181113913655281 -7.395936548709869 -3.126938734203577 4.505677700042725 21.833332061767578 3.7446835041046143 -12.21198558807373 10.729473114013672 -0.010011706501245499 5.8976593017578125 -8.48559284210205 0.3406737744808197 -7.689237117767334 16.724184036254883 -9.692703247070312 12.266491889953613 -26.602388381958008 -15.943648338317871 -0.13485002517700195 -0.0666816383600235 -0.08346976339817047 -0.11731237173080444 0.01656445674598217 -0.18691770732402802 0.0062651257030665874 -0.009795233607292175 0.06766308844089508 45.003501892089844 29.656021118164062 12.115235328674316 -28.08843231201172 -31.706634521484375 69.8659439086914 0.06097476929426193 -2.760753870010376 -0.41130849719047546 -0.005874717142432928 0.07824277132749557 0.07457850128412247 0.06337405741214752 -0.10779134184122086 -0.09538865834474564 0.22797609865665436 -0.14656475186347961 0.04278736561536789 7.747325420379639 5.406731128692627 0.3005058169364929 0.0621139220893383 -0.09852306544780731 -0.09648724645376205 2.9237141609191895 0.9582069516181946 0.02803509309887886 -0.10125540941953659 -0.0010401364415884018 0.065607950091362 10.309300422668457 0.8207197189331055 0.03372281417250633 -0.09410563111305237 -0.030143650248646736 0.06857176870107651 2.4490315914154053 -0.7470898628234863 -0.16188852488994598 0.11214973777532578 -0.05841252952814102 -0.2554719150066376 -58.5599365234375 54.16606140136719 -19.84381103515625 28.1517276763916 -40.2360954284668 -84.17967987060547 0.991378664970398 -29.472301483154297 4.383335590362549 0.08696926385164261 -0.07303595542907715 -0.035355132073163986 0.054791588336229324 0.08527190238237381 -0.053155213594436646 -0.04497627541422844 -0.1300506442785263 -0.019831912592053413 -7.776559352874756 5.39001989364624 -0.33199506998062134 0.02895214967429638 0.129139244556427 0.03269702196121216 -2.962635040283203 0.9753430485725403 -0.16531576216220856 -0.1753244549036026 0.045606739819049835 -0.11749658733606339 -10.202253341674805 0.7074722647666931 -0.003907246049493551 0.07082566618919373 0.15515099465847015 -0.1667211800813675 -2.0847675800323486 -0.758639395236969 0.2525363862514496 -0.059045180678367615 -0.06651324778795242 0.08985669165849686 -48.749637603759766 -58.62055206298828 -46.0238037109375 -2.736654758453369 72.76359558105469 3.0974323749542236 2.0619583129882812 -5.050451278686523 9.294896125793457 0.04548617824912071 0.12575934827327728 0.036250922828912735 11.813567161560059 3.5512170791625977 3.9082887172698975 0.11168665438890457 45.252464294433594 -3.0920803546905518 16.608518600463867 -23.55312156677246 37.93457794189453
